<svg xmlns="http://www.w3.org/2000/svg" xmlns:xlink="http://www.w3.org/1999/xlink" width="18" height="18" viewBox="0 0 18 18">

    <path id="icon-doc-b-a" d="M15.8571429,8.57142857 L14.5714286,8.57142857 L14.5714286,5.14285714 C14.5714286,4.2 13.8,3.42857143 12.8571429,3.42857143 L9.42857143,3.42857143 L9.42857143,2.14285714 C9.42857143,0.96 8.46857143,0 7.28571429,0 C6.10285714,0 5.14285714,0.96 5.14285714,2.14285714 L5.14285714,3.42857143 L1.71428571,3.42857143 C0.771428571,3.42857143 0.00857142857,4.2 0.00857142857,5.14285714 L0.00857142857,8.4 L1.28571429,8.4 C2.56285714,8.4 3.6,9.43714286 3.6,10.7142857 C3.6,11.9914286 2.56285714,13.0285714 1.28571429,13.0285714 L0,13.0285714 L0,16.2857143 C0,17.2285714 0.771428571,18 1.71428571,18 L4.97142857,18 L4.97142857,16.7142857 C4.97142857,15.4371429 6.00857143,14.4 7.28571429,14.4 C8.56285714,14.4 9.6,15.4371429 9.6,16.7142857 L9.6,18 L12.8571429,18 C13.8,18 14.5714286,17.2285714 14.5714286,16.2857143 L14.5714286,12.8571429 L15.8571429,12.8571429 C17.04,12.8571429 18,11.8971429 18,10.7142857 C18,9.53142857 17.04,8.57142857 15.8571429,8.57142857 Z"/>
</svg>
