<svg xmlns="http://www.w3.org/2000/svg" xmlns:xlink="http://www.w3.org/1999/xlink" width="18" height="18" viewBox="0 0 18 18">
    <path id="icon-doc-g-a" d="M2.49262424,5.82207323 C1.87919491,5.82177053 1.38200385,6.3201724 1.3818525,6.93314767 L1.38260926,11.5851003 C1.38276061,12.2001945 1.88025437,12.6966288 2.49383505,12.6964774 C3.10771844,12.6964774 3.60506084,12.2000431 3.60445543,11.5852516 L3.60445543,6.93254227 C3.60415273,6.31971834 3.10635627,5.82177053 2.49262424,5.82207323 Z M11.4515984,1.64445756 L12.2269743,0.228560359 C12.2682933,0.154549271 12.2412013,0.0604083769 12.1662821,0.0184838953 C12.0906062,-0.0216243632 11.9972221,0.00561898221 11.9571138,0.0800841264 L11.1738676,1.51081382 C10.5148814,1.2174938 9.77734346,1.05312561 8.99697296,1.05388237 C8.21872139,1.05312561 7.4814862,1.21703974 6.82522427,1.50869489 L6.04106998,0.0815976456 C6.00035631,0.0063757418 5.90651812,-0.0208676036 5.83250704,0.0201487664 C5.75713378,0.0608624327 5.72943638,0.155154678 5.77136086,0.229014415 L6.54703945,1.64400351 C5.02292562,2.42997402 3.99312716,3.9268445 3.99403467,5.64544554 L14.0011215,5.64423473 C14.0014242,3.9262391 12.9734419,2.43239565 11.4515984,1.64445756 Z M6.7209428,3.83255226 C6.49073653,3.8320982 6.30275745,3.64472453 6.30275745,3.41315609 C6.30275745,3.18264712 6.49013112,2.99315451 6.72139686,2.99330587 C6.95341935,2.99315451 7.14109573,3.18264712 7.14139843,3.41315609 C7.14139843,3.64442182 6.953268,3.83240091 6.7209428,3.83255226 Z M11.2775437,3.8317955 C11.0462779,3.8320982 10.8579962,3.64457317 10.8579962,3.41239933 C10.8589043,3.18234441 11.0459752,2.99285181 11.277695,2.9919437 C11.5079013,2.99270046 11.6966371,3.18234441 11.6964858,3.41255068 C11.6969398,3.64411912 11.5088094,3.83194685 11.2775437,3.8317955 Z M4.03490029,6.03199835 L4.03656516,13.241647 C4.03611111,13.8974549 4.56659958,14.4268839 5.22195339,14.4268839 L6.02911318,14.4271866 L6.03002129,16.8887742 C6.02986994,17.5017495 6.52812046,18 7.14018762,18 C7.754071,18 8.25141341,17.5012954 8.25156476,16.8880175 L8.25095935,14.4270352 L9.75070552,14.4265812 L9.75131093,16.8880175 C9.75131093,17.5005387 10.2497128,17.9998486 10.8619313,17.9986378 C11.4758147,17.9990919 11.9734598,17.5003873 11.9733085,16.8871093 L11.9725517,14.4262785 L12.7825872,14.4256731 C13.4364275,14.4259758 13.9682781,13.8959414 13.9685808,13.2399821 L13.9672186,6.03033348 L4.03490029,6.03199835 Z M16.6173907,6.9314828 C16.6172394,6.31775077 16.1200483,5.82040836 15.5063163,5.82071107 C14.892887,5.82010566 14.3958473,6.31820483 14.3958473,6.93193686 L14.3967554,11.5841921 C14.396604,12.1983782 14.8936437,12.6948125 15.5075271,12.6949639 C16.1211078,12.6948125 16.6179961,12.1983782 16.6181475,11.5835867 L16.6173907,6.9314828 Z"/>

</svg>
