<svg xmlns="http://www.w3.org/2000/svg" xmlns:xlink="http://www.w3.org/1999/xlink" width="18" height="18" viewBox="0 0 18 18">

    <path id="icon-doc-i-a" d="M7.45455616,9 L10.6853332,9 L8.96794203,5.30175946 L7.45455616,9 Z M8.97363197,-1.08357767e-13 L0.75,2.98037285 L2.04938853,14.075952 L8.98237506,18 L15.9510278,14.0229301 L17.25,2.9276368 L8.97363197,-1.08357767e-13 Z M6.78564099,10.5720774 L5.77741097,13.1697208 L3.89265228,13.1777241 L8.97307686,1.59022771 L8.96336232,1.56836155 L8.95448046,1.56836155 L8.95461924,1.5493537 L8.96336232,1.56836155 L8.98293017,1.56836155 L9,1.52920253 L9,1.56836155 L8.98279139,1.56836155 L8.97321564,1.59022771 L14.2730499,13.2260298 L12.4586522,13.1850129 L11.3425909,10.5296313 L8.95933773,10.5413504 L6.78564099,10.5720774 Z"/>

</svg>
