<?xml version="1.0" encoding="utf-8"?>
<!-- Generator: Adobe Illustrator 22.1.0, SVG Export Plug-In . SVG Version: 6.00 Build 0)  -->
<svg version="1.1" id="Layer_1" xmlns="http://www.w3.org/2000/svg" xmlns:xlink="http://www.w3.org/1999/xlink" x="0px" y="0px"
	 viewBox="0 0 27 23" style="enable-background:new 0 0 27 23;" xml:space="preserve">
<title>DAM icon</title>
<desc>Created with Sketch.</desc>
<g id="Page-1">
	<g id="solutions-menu-copy" transform="translate(-434.000000, -311.000000)">
		<g id="Group-2" transform="translate(411.000000, 101.000000)">
			<g id="Stacked-Group-2" transform="translate(15.000000, 23.000000)">
				<g id="icon_x2F_Folder-icon" transform="translate(0.000000, 181.000000)">
					<g id="DAM-icon" transform="translate(8.000000, 5.000000)">
						<path id="Shape" d="M5.1,1C4.3,0.9,3.6,1.3,3.4,2.1l-2.5,11c-0.2,0.8,0.3,1.5,1,1.7l8,1.9c0.7,0.2,1.5-0.3,1.7-1.1l1.9-8.3
							l-3.1-5.1L5.1,1z M8.5,7.6l0.9-4.1l3.1,5.1L8.5,7.6z"/>
						<path id="Shape_1_" d="M24.6,1.8l1.2,2.5H24l-1.2-2.5h-1.2l1.2,2.5H21l-1.2-2.5h-1.2l1.2,2.5H18l-1.2-2.5h-0.6
							c-0.7,0-1.2,0.6-1.2,1.3l0,7.6c0,0.7,0.5,1.3,1.2,1.3h9.6c0.7,0,1.2-0.6,1.2-1.3V1.8H24.6z"/>
						<path id="Combined-shape-18217-Copy" d="M21,13.5v7.9c0,1.4-1.2,2.6-2.6,2.6h-7.8C9.2,24,8,22.8,8,21.4v-7.9
							c0-1.4,1.2-2.6,2.6-2.6h7.8C19.8,10.9,21,12.1,21,13.5z M19.1,21.4l-2.9-3.9l-2.3,3l-1.6-2l-2.3,3H19.1z"/>
					</g>
				</g>
			</g>
		</g>
	</g>
</g>
</svg>
