<svg xmlns="http://www.w3.org/2000/svg" xmlns:xlink="http://www.w3.org/1999/xlink" width="18" height="18" viewBox="0 0 18 18">

    <path id="icon-doc-j-a" d="M13.9123971,9.56287093 C13.9376075,12.2867577 16.3021731,13.1933194 16.3282528,13.2049104 C16.3082583,13.2686609 15.9505309,14.4967281 15.0826542,15.7649293 C14.3324262,16.8614386 13.5536554,17.953891 12.3271819,17.9767833 C11.1220069,17.9988062 10.7344326,17.2619079 9.35640673,17.2619079 C7.97881549,17.2619079 7.54835445,17.953891 6.40736466,17.9988062 C5.22334324,18.0437213 4.32170775,16.8129012 3.56524963,15.7205936 C2.01958878,13.4858474 0.838320233,9.40566789 2.42440472,6.65149963 C3.21230345,5.28376075 4.62061086,4.41776761 6.14903008,4.39545492 C7.31160813,4.37328712 8.40898676,5.17755815 9.1196604,5.17755815 C9.82989939,5.17755815 11.1634448,4.21028857 12.5653771,4.35227842 C13.1523168,4.37676442 14.7996887,4.58931452 15.857513,6.13787311 C15.772464,6.19075709 13.891968,7.28552774 13.9123971,9.56287093 M11.6473694,2.8739903 C12.2758917,2.11318555 12.6989635,1.05376747 12.583633,-5.99520433e-14 C11.677506,0.0363667859 10.581866,0.603746601 9.93204514,1.36426158 C9.34959701,2.03755422 8.83959269,3.11551792 8.97709101,4.14842157 C9.98710242,4.22666087 11.0187021,3.63522972 11.6473694,2.8739903"/>


</svg>
