<svg xmlns="http://www.w3.org/2000/svg" xmlns:xlink="http://www.w3.org/1999/xlink" width="18" height="18" viewBox="0 0 18 18">

    <path id="icon-doc-d-a" d="M7.18935974e-05,-7.32747196e-14 L17.9999281,-7.32747196e-14 L17.9999281,18 L7.18935974e-05,18 L7.18935974e-05,-7.32747196e-14 Z M16.5268283,13.7069457 C16.3949754,12.885777 15.8595119,12.1960299 14.2733954,11.5528698 C13.7224028,11.2996605 13.1081439,11.1183448 12.9251028,10.7007868 C12.860111,10.4577865 12.8514838,10.3209011 12.8926069,10.1738068 C13.0106562,9.69643328 13.5804849,9.54761353 14.0321205,9.68449894 C14.323002,9.78198666 14.5983544,10.0061509 14.7644286,10.3637497 C15.5411671,9.86078204 15.5395854,9.86408915 16.0819507,9.51842473 C15.8833806,9.21057635 15.7774094,9.0685146 15.6474258,8.93680553 C15.1802612,8.4150018 14.5437153,8.14626353 13.525702,8.1668251 L12.9954148,8.23541159 C12.4872708,8.36381356 12.0029956,8.6305388 11.7190159,8.98813756 C10.8669329,9.95496266 11.1099333,11.6470504 12.1467828,12.3434118 C13.168247,13.1100851 14.6688102,13.2844989 14.8604785,14.0014219 C15.0469705,14.8790989 14.2154491,15.1632224 13.3889603,15.0622838 C12.7798778,14.9356073 12.4411151,14.6260335 12.0748892,14.0631066 C11.4008148,14.4532013 11.4008148,14.4532013 10.7077605,14.8517794 C10.8721093,15.2111036 11.0447977,15.3737269 11.320294,15.6850262 C12.6241562,17.0075808 15.8869753,16.942589 16.4721892,14.9407836 C16.495914,14.8720534 16.6535048,14.4136598 16.5268283,13.7069457 Z M9.78536566,8.27279626 L8.10176139,8.27279626 L8.09485961,12.6255222 C8.09485961,13.5512242 8.14274074,14.3998562 7.99219555,14.6599672 C7.74588809,15.1715621 7.10761673,15.1081519 6.81673523,15.0089388 C6.5206774,14.8634261 6.3701322,14.6565164 6.19571834,14.3640532 C6.1478372,14.2800815 6.1118904,14.2150897 6.09981228,14.2100571 L4.73095818,15.0483365 C4.95857331,15.5155011 5.29388505,15.9209809 5.7233774,16.1843991 C6.36495587,16.5694612 7.22724767,16.6875105 8.12908096,16.4804569 C8.71602029,16.3094939 9.22243879,15.9553461 9.48758238,15.4162879 C9.87091904,14.7095738 9.78867276,13.8541838 9.78522187,12.9080641 C9.7938491,11.3645085 9.78536566,9.82124056 9.78536566,8.27279626 Z"/>

</svg>
