<svg xmlns="http://www.w3.org/2000/svg" xmlns:xlink="http://www.w3.org/1999/xlink" width="18" height="18" viewBox="0 0 18 18">

    <path id="icon-doc-e-a" d="M16.252507,3.98840546 L9.76159346,0.176845657 C9.35224065,-0.0589485523 8.81924299,-0.0589485523 8.40665187,0.176845657 L1.84640888,3.98840546 C1.42395561,4.23417329 1.125,4.69608581 1.125,5.19015209 L1.125,12.8031492 C1.125,13.2972155 1.43175701,13.7592769 1.85421028,14.0063844 L3.58744626,15.00196 C4.41586682,15.4145999 4.70864019,15.4145999 5.08560981,15.4145999 C6.31219626,15.4145999 7.01285047,14.6644944 7.01285047,13.356164 L7.01285047,5.84022362 C7.01285047,5.73408645 6.95824065,5.57614602 6.85520327,5.57614602 L6.02751869,5.57614602 C5.92271495,5.57614602 5.68808411,5.73408645 5.68808411,5.84007476 L5.68808411,13.3560152 C5.68808411,13.9359737 5.16936449,14.5131038 4.19992991,14.0229079 L2.40899299,12.9789529 C2.34658178,12.9447151 2.30257009,12.8757929 2.30257009,12.8031492 L2.30257009,5.19015209 C2.30257009,5.11840157 2.38426402,5.04635334 2.44711682,5.00958493 L8.98616355,1.20457496 C9.04725,1.16959287 9.13703972,1.16959287 9.19797897,1.20457496 L15.6572453,5.00869177 C15.7190678,5.04635334 15.6972827,5.11616867 15.6972827,5.19015209 L15.6972827,12.8031492 C15.6972827,12.8757929 15.7242196,12.9465014 15.6631332,12.9814835 L9.17383879,16.7887263 C9.1181986,16.8225176 9.04916355,16.8225176 8.9882243,16.7887263 L7.32387617,15.7840703 C7.27368224,15.7545961 7.21406776,15.744027 7.16593458,15.7712684 C6.70285514,16.0366857 6.61748131,16.0719655 6.18310514,16.2242493 C6.07624065,16.2619109 5.91859346,16.3272604 6.24345561,16.5114002 L8.42166589,17.8145205 C8.63024299,17.9365856 8.86722897,18 9.10568692,18 C9.34738318,18 9.58407477,17.9365856 9.79265187,17.8145205 L16.2523598,14.0063844 C16.6748131,13.7574906 16.875,13.2972155 16.875,12.8031492 L16.875,5.19015209 C16.875,4.69608581 16.6748131,4.23536417 16.252507,3.98840546 Z M11.1210981,11.5967879 C9.39507477,11.5967879 9.01486682,11.1152259 8.88813084,10.2472233 C8.87341121,10.1537393 8.79495561,10.0419454 8.7008972,10.0419454 L7.85731542,10.0419454 C7.75295327,10.0419454 7.6690514,10.169965 7.6690514,10.2750602 C7.6690514,11.3864488 8.26652103,12.7330362 11.1212453,12.7330362 C13.1877336,12.7330362 14.3725164,11.921005 14.3725164,10.4839107 C14.3725164,9.05902298 13.4205981,8.68508671 11.416521,8.41684103 C9.39080607,8.14606472 9.1850257,8.0092624 9.1850257,7.52933782 C9.1850257,7.13366799 9.35930607,6.60595936 10.859236,6.60595936 C12.1994579,6.60595936 12.6934486,6.89683176 12.8967266,7.81038546 C12.9140958,7.89627767 12.9916682,7.95790571 13.07925,7.95790571 L13.9262173,7.95790571 C13.9783248,7.95790571 14.0280771,7.93661873 14.0645818,7.89895715 C14.0999089,7.85846724 14.1186028,7.80770598 14.1138925,7.75322323 C13.9827407,6.18007096 12.9492757,5.44693555 10.8590888,5.44693555 C8.9998528,5.44693555 7.89072897,6.24095469 7.89072897,7.57191178 C7.89072897,9.01555587 8.99425935,9.41450062 10.779014,9.59298373 C12.9140958,9.80466263 13.0801332,10.1202458 13.0801332,10.5449433 C13.0801332,11.2825445 12.4945864,11.5967879 11.1210981,11.5967879 Z"/>

</svg>
