<svg xmlns="http://www.w3.org/2000/svg" xmlns:xlink="http://www.w3.org/1999/xlink" width="18" height="18" viewBox="0 0 18 18">

    <path id="icon-doc-f-a" d="M9,4.43901201 C4.02962648,4.43901201 8.52651283e-14,6.45377252 8.52651283e-14,8.93901201 C8.52651283e-14,11.4242515 4.02962648,13.439012 9,13.439012 C13.9703735,13.439012 18,11.4242515 18,8.93901201 C18,6.45377252 13.9703735,4.43901201 9,4.43901201 Z M6.65814974,9.81572788 C6.44336596,10.0139773 6.20486463,10.095806 5.94220382,10.1801056 C5.679543,10.2645506 5.34528759,10.2471093 4.93884833,10.2471093 L4.01769405,10.2471093 L3.76239893,11.7005507 L2.68685959,11.7005507 L3.64661014,6.75884987 L5.71489835,6.75884987 C6.33715258,6.75884987 6.79102694,6.93544301 7.07637411,7.25767097 C7.36172128,7.57989894 7.44745802,8.03729695 7.33373163,8.61474923 C7.28673847,8.85267759 7.20763086,9.07389138 7.09596687,9.27097804 C6.98415556,9.46821004 6.83816741,9.65236107 6.65814974,9.81572788 Z M9.79755786,10.2471093 L10.2219694,8.15124676 C10.2702884,7.90590585 10.2526107,7.72364429 10.1687891,7.63454833 C10.0848201,7.54530703 9.90627558,7.48557059 9.63330278,7.48557059 L8.78035486,7.48557059 L8.23072642,10.2471093 L7.16358399,10.2471093 L8.12333453,5.45075259 L9.19047697,5.45075259 L8.93532916,6.75884987 L9.88594625,6.75884987 C10.4841883,6.75884987 10.8966674,6.87730535 11.1236783,7.08311266 C11.3506891,7.28891996 11.4187482,7.5708876 11.3280027,8.03191922 L10.8814941,10.2471093 L9.79755786,10.2471093 Z M15.7282712,8.62245247 C15.6814253,8.86038083 15.6021704,9.07781567 15.4906537,9.27475698 C15.3789898,9.47198899 15.2331489,9.65236107 15.0529839,9.81572788 C14.8382002,10.0139773 14.5995515,10.095806 14.337038,10.1801056 C14.0745245,10.2645506 13.7399745,10.2471093 13.3335352,10.2471093 L12.4123809,10.2471093 L12.1572331,11.7005507 L11.0816938,11.7005507 L12.041297,6.75884987 L14.1097325,6.75884987 C14.7319868,6.75884987 15.1858611,6.93544301 15.471061,7.25767097 C15.7561135,7.57989894 15.8419976,8.04514554 15.7282712,8.62245247 Z M13.7021148,7.48557059 L12.9653976,7.48557059 L12.5636724,9.52038858 L13.2180411,9.52038858 C13.6514388,9.52038858 13.9746456,9.47823878 14.1867778,9.31690679 C14.3992045,9.15586548 14.5422464,8.90587355 14.6166399,8.52899619 C14.6879399,8.16694393 14.6555308,7.88454026 14.5194127,7.73570786 C14.3831473,7.58687546 14.1107637,7.48557059 13.7021148,7.48557059 Z M5.3074279,7.48557059 L4.57056339,7.48557059 L4.16883818,9.52038858 L4.82305955,9.52038858 C5.25660458,9.52038858 5.57966412,9.47823878 5.79194356,9.31690679 C6.004223,9.15586548 6.14741218,8.90587355 6.22165843,8.52899619 C6.29295839,8.16694393 6.26054932,7.88454026 6.1244312,7.73570786 C5.98831309,7.58687546 5.71607687,7.48557059 5.3074279,7.48557059 Z"/>

</svg>
