<svg xmlns="http://www.w3.org/2000/svg" xmlns:xlink="http://www.w3.org/1999/xlink" width="18" height="18" viewBox="0 0 18 18">
    <path id="icon-doc-h-a" d="M9,7.36102236 C8.09481765,7.36102236 7.36102236,8.09481765 7.36102236,9 C7.36102236,9.90518235 8.09481765,10.6389776 9,10.6389776 C9.58555032,10.6389777 10.1266211,10.3265903 10.4193963,9.81948883 C10.7121715,9.31238738 10.7121715,8.68761262 10.4193963,8.18051117 C10.1266211,7.67340972 9.58555032,7.36102235 9,7.36102236 Z M15.2252396,6.2971246 C14.9089457,6.18210863 14.5782748,6.06709265 14.2332268,5.96645367 C14.3194888,5.62140575 14.3913738,5.27635783 14.4488818,4.9456869 C14.7507987,3.04792332 14.4201278,1.71086262 13.5,1.19329073 C13.2268371,1.03514377 12.9249201,0.963258786 12.5798722,0.963258786 C11.5734824,0.963258786 10.2939297,1.71086262 9,2.96166134 C7.70607029,1.71086262 6.42651757,0.963258786 5.4201278,0.963258786 C5.07507987,0.963258786 4.77316294,1.03514377 4.5,1.19329073 C3.5798722,1.72523962 3.24920128,3.06230032 3.55111821,4.9456869 C3.6086262,5.27635783 3.68051118,5.62140575 3.76677316,5.96645367 C3.42172524,6.06709265 3.09105431,6.16773163 2.77476038,6.2971246 C0.977635783,6.98722045 1.33670852e-13,7.93610224 1.33670852e-13,9 C1.33670852e-13,10.0638978 0.99201278,11.0127796 2.77476038,11.7028754 C3.09105431,11.8178914 3.42172524,11.9329073 3.76677316,12.0335463 C3.68051118,12.3785942 3.6086262,12.7236422 3.55111821,13.0543131 C3.24920128,14.9520767 3.5798722,16.2891374 4.5,16.8067093 C4.77316294,16.9648562 5.07507987,17.0367412 5.4201278,17.0367412 C6.44089457,17.0367412 7.72044728,16.2891374 9,15.0383387 C10.2939297,16.2891374 11.5734824,17.0367412 12.5798722,17.0367412 C12.9249201,17.0367412 13.2268371,16.9648562 13.5,16.8067093 C14.4201278,16.2747604 14.7507987,14.9376997 14.4488818,13.0543131 C14.3913738,12.7236422 14.3194888,12.3785942 14.2332268,12.0335463 C14.5782748,11.9329073 14.9089457,11.8322684 15.2252396,11.7028754 C17.0223642,11.0127796 18,10.0638978 18,9 C18,7.93610224 17.0223642,6.98722045 15.2252396,6.2971246 Z M13.0974441,1.91214058 C13.686901,2.2571885 13.8881789,3.32108626 13.64377,4.83067093 C13.600639,5.13258786 13.528754,5.44888179 13.442492,5.77955272 C12.6948882,5.60702875 11.9041534,5.49201278 11.0702875,5.4201278 C10.5814696,4.73003195 10.0782748,4.11182109 9.57507987,3.55111821 C10.6389776,2.50159744 11.7172524,1.7827476 12.5942492,1.7827476 C12.7811502,1.7827476 12.9536741,1.82587859 13.0974441,1.91214058 Z M11.4872204,10.4376997 C11.2284345,10.8977636 10.9265176,11.3578275 10.6102236,11.8178914 C10.0782748,11.8610224 9.54632588,11.8753994 9,11.8753994 C8.43929712,11.8753994 7.90734824,11.8610224 7.38977636,11.8178914 C7.07348243,11.3578275 6.78594249,10.8977636 6.52715655,10.4376997 C6.25399361,9.96325879 5.99520767,9.47444089 5.76517572,9 C5.99520767,8.52555911 6.25399361,8.03674121 6.52715655,7.56230032 C6.78594249,7.10223642 7.08785942,6.64217252 7.40415335,6.18210863 C7.93610224,6.13897764 8.46805112,6.12460064 9.014377,6.12460064 C9.57507987,6.12460064 10.1070288,6.13897764 10.6246006,6.18210863 C10.9408946,6.64217252 11.2284345,7.10223642 11.4872204,7.56230032 C11.7603834,8.03674121 12.0191693,8.52555911 12.2492013,9 C12.0047923,9.47444089 11.7603834,9.94888179 11.4872204,10.4376997 Z M12.6805112,9.96325879 C12.8961661,10.4664537 13.0686901,10.9552716 13.2268371,11.4440895 C12.7380192,11.5591054 12.2204473,11.6453674 11.6741214,11.7172524 C11.8466454,11.4440895 12.0335463,11.1565495 12.1916933,10.8546326 C12.3642173,10.5527157 12.5223642,10.2507987 12.6805112,9.96325879 Z M9,13.8594249 C8.65495208,13.485623 8.32428115,13.0830671 8.00798722,12.6661342 C8.33865815,12.6805112 8.66932907,12.6948882 9,12.6948882 C9.33067093,12.6948882 9.66134185,12.6805112 9.99201278,12.6661342 C9.67571885,13.0830671 9.34504792,13.485623 9,13.8594249 Z M6.32587859,11.7028754 C5.77955272,11.6309904 5.26198083,11.5447284 4.77316294,11.4297125 C4.9313099,10.9552716 5.10383387,10.4520767 5.31948882,9.94888179 C5.47763578,10.2364217 5.63578275,10.5383387 5.80830671,10.8258786 C5.98083067,11.1421725 6.15335463,11.4153355 6.32587859,11.7028754 Z M5.31948882,8.03674121 C5.10383387,7.53354633 4.9313099,7.04472843 4.77316294,6.55591054 C5.26198083,6.44089457 5.77955272,6.35463259 6.32587859,6.2827476 C6.15335463,6.55591054 5.96645367,6.84345048 5.80830671,7.14536741 C5.63578275,7.44728435 5.47763578,7.74920128 5.31948882,8.03674121 Z M9,4.14057508 C9.34504792,4.514377 9.67571885,4.91693291 9.99201278,5.33386581 C9.66134185,5.31948882 9.33067093,5.30511182 9,5.30511182 C8.66932907,5.30511182 8.33865815,5.31948882 8.00798722,5.33386581 C8.32428115,4.91693291 8.65495208,4.514377 9,4.14057508 Z M12.1916933,7.15974441 L11.6741214,6.2971246 C12.2204473,6.36900958 12.7380192,6.45527157 13.2268371,6.57028754 C13.0686901,7.04472843 12.8961661,7.54792332 12.6805112,8.05111821 C12.5223642,7.74920128 12.3642173,7.44728435 12.1916933,7.15974441 Z M4.35623003,4.83067093 C4.11182109,3.32108626 4.31309904,2.2571885 4.90255591,1.91214058 C5.04632588,1.82587859 5.21884984,1.7827476 5.4057508,1.7827476 C6.26837061,1.7827476 7.34664537,2.48722045 8.42492013,3.55111821 C7.92172524,4.09744409 7.41853035,4.73003195 6.92971246,5.4201278 C6.09584665,5.49201278 5.30511182,5.62140575 4.55750799,5.77955272 C4.47124601,5.44888179 4.41373802,5.13258786 4.35623003,4.83067093 Z M0.805111821,9 C0.805111821,8.32428115 1.62460064,7.60543131 3.06230032,7.07348243 C3.34984026,6.95846645 3.66613419,6.85782748 3.98242812,6.7715655 C4.21246006,7.49041534 4.5,8.25239617 4.84504792,9.014377 C4.5,9.77635783 4.19808307,10.5239617 3.98242812,11.2428115 C1.99840256,10.6677316 0.805111821,9.80511182 0.805111821,9 Z M4.90255591,16.0878594 C4.31309904,15.7428115 4.11182109,14.6789137 4.35623003,13.1693291 C4.39936102,12.8674121 4.47124601,12.5511182 4.55750799,12.2204473 C5.30511182,12.3929712 6.09584665,12.5079872 6.92971246,12.5798722 C7.41853035,13.2699681 7.92172524,13.8881789 8.42492013,14.4488818 C7.36102236,15.4984026 6.2827476,16.2172524 5.4057508,16.2172524 C5.21884984,16.2172524 5.04632588,16.1741214 4.90255591,16.0878594 Z M13.64377,13.1693291 C13.8881789,14.6789137 13.686901,15.7428115 13.0974441,16.0878594 C12.9536741,16.1741214 12.7811502,16.2172524 12.5942492,16.2172524 C11.7316294,16.2172524 10.6533546,15.5127796 9.57507987,14.4488818 C10.0782748,13.9025559 10.5814696,13.2699681 11.0702875,12.5798722 C11.9041534,12.5079872 12.6948882,12.3785942 13.442492,12.2204473 C13.528754,12.5511182 13.586262,12.8674121 13.64377,13.1693291 Z M14.9376997,10.9265176 C14.6501597,11.0415335 14.3338658,11.1421725 14.0175719,11.2284345 C13.7875399,10.5095847 13.5,9.74760383 13.1549521,8.985623 C13.5,8.22364217 13.8019169,7.47603834 14.0175719,6.7571885 C16.0015974,7.33226837 17.1948882,8.19488818 17.1948882,9 C17.1948882,9.67571885 16.3610224,10.3945687 14.9376997,10.9265176 Z"/>
</svg>
