<svg xmlns="http://www.w3.org/2000/svg" xmlns:xlink="http://www.w3.org/1999/xlink" width="18" height="18" viewBox="0 0 18 18">
    <path id="icon-doc-c-a" d="M13.8181289,3.77977148 C12.5307773,3.1445332 11.212207,3.07988086 9.86220703,3.55712695 C8.61989063,3.99629883 7.62890625,4.78214648 6.89220703,5.85244336 C5.64567188,7.66355273 4.74022266,9.6397207 4.2328125,11.7864316 C3.9729375,12.8850996 3.80460938,14.0504238 3.84985547,15.1850566 C3.85354688,15.2771309 3.86725781,15.3036035 3.87632813,15.514541 L10.2430547,15.514541 C10.2248086,15.3036035 10.2127852,15.3651973 10.1969648,15.3250137 C9.86210156,14.470084 9.59695313,13.5672715 9.41354297,12.6674121 C9.15008203,11.3753145 9.01212891,10.0592754 9.28423828,8.75525977 C9.66508594,6.9292793 10.705957,5.61176367 12.4606406,4.92853711 C13.4545781,4.5417832 14.3979961,4.65178711 15.2253984,5.37804492 C15.2329922,5.38468945 15.2486016,5.38068164 15.2688516,5.38395117 L15.5393789,4.97441602 C15.0183633,4.47839648 14.4458789,4.08963867 13.8181289,3.77977148 Z M2.60194922,12.1810957 C2.55343359,12.5948496 2.50808203,12.9822363 2.46062109,13.3888184 L3.63469922,13.5297246 L3.84975,12.2753848 C3.42207422,12.2430059 3.01591406,12.2123145 2.60194922,12.1810957 Z M4.90644141,8.57554102 L3.80207812,8.14343555 L3.44517187,9.15667383 L4.57062891,9.51737695 C4.68453516,9.19770117 4.79169141,8.89700977 4.90644141,8.57554102 Z M10.1186016,14.2348887 C10.4956523,14.2629434 10.8734414,14.2822441 11.2896211,14.306502 C11.1384844,13.9923105 11.0042227,13.7081777 10.8636328,13.4274199 C10.8482344,13.3969395 10.7962383,13.3675137 10.7609062,13.3669863 C10.4410195,13.3623457 10.1209219,13.3643496 9.78099609,13.3643496 C9.85756641,13.6415215 9.92411719,13.8972832 10.0020586,14.1493535 C10.0137656,14.1874277 10.076625,14.2318301 10.1186016,14.2348887 Z M6.77819531,5.50587305 L5.93919141,4.95026367 C5.71433203,5.2015957 5.49748828,5.44385742 5.26851562,5.69961914 L6.13103906,6.27927539 L6.77819531,5.50587305 Z M9.45014062,11.1346348 C9.44876953,11.1684902 9.47925,11.2223848 9.50899219,11.2357793 C9.81116016,11.371623 10.1164922,11.5010332 10.4489297,11.6442598 C10.4351133,11.3814316 10.425832,11.1617402 10.4101172,10.9424707 C10.4072695,10.9030254 10.388707,10.8462832 10.3594922,10.830041 C10.0820039,10.6764785 9.80061328,10.5297715 9.49296094,10.3665059 C9.47619141,10.6475801 9.45910547,10.8908965 9.45014062,11.1346348 Z M9.20155078,3.52274414 L8.62716797,2.8708418 L7.83625781,3.28195898 C8.03411719,3.52306055 8.22090234,3.75055664 8.41158984,3.98269336 L9.20155078,3.52274414 Z M9.56172656,8.70927539 C9.54453516,8.7487207 9.56721094,8.83235742 9.60106641,8.86283789 C9.83046094,9.06976758 10.0676602,9.26783789 10.331543,9.49364648 C10.3919766,9.24052148 10.4489297,9.01492383 10.4972344,8.78774414 C10.5057773,8.74734961 10.4938594,8.68058789 10.4658047,8.65801758 C10.2605625,8.49253711 10.0486758,8.3349668 9.82908984,8.16748242 C9.73258594,8.3589082 9.63903516,8.53061133 9.56172656,8.70927539 Z M10.8748125,3.18018164 C11.1680156,3.1880918 11.4615352,3.18461133 11.7711914,3.18461133 C11.7402891,2.9690332 11.7255234,2.80566211 11.6887148,2.64756445 C11.6777461,2.60052539 11.6069766,2.53787695 11.5591992,2.53386914 C11.2652578,2.5100332 10.9701562,2.50085742 10.6467891,2.48545898 C10.6899258,2.70304102 10.722832,2.8947832 10.7693437,3.08325586 C10.7791523,3.12322852 10.837582,3.17912695 10.8748125,3.18018164 Z M11.2318242,6.9427793 C11.2468008,6.91472461 11.2505977,6.8637832 11.2348828,6.83931445 C11.0908125,6.61392773 10.9411523,6.39202148 10.7862188,6.15851367 L10.2841875,6.61962305 L10.9783828,7.38891211 C11.0716172,7.2265957 11.155043,7.08642773 11.2318242,6.9427793 Z M11.7734062,5.41063477 L12.0732539,5.96761523 C12.5424844,5.71048242 12.5874141,5.61745898 12.4213008,5.2468418 L11.7734062,5.41063477 Z M14.0185195,3.6943418 C14.2137422,3.81478711 14.4199336,3.9174082 14.6293945,4.03025977 L14.769668,3.81193945 C14.5142227,3.6251543 14.2676367,3.44448633 13.9878281,3.23966602 C13.9768594,3.35610352 13.9605117,3.43741992 13.9647305,3.51778711 C13.9681055,3.57906445 13.9783359,3.66966211 14.0185195,3.6943418 Z M13.7461992,5.45767383 C13.9571367,5.48056055 14.273543,5.50239258 14.4844805,5.52549023 L14.4844805,5.23882617 C14.273543,5.19263086 13.9571367,5.14685742 13.7461992,5.09929102 L13.7461992,5.45767383 Z"/>

</svg>
